<?xml version="1.0" encoding="UTF-8" standalone="no"?>
<!-- Created with Inkscape (http://www.inkscape.org/) -->

<svg
   xmlns:dc="http://purl.org/dc/elements/1.1/"
   xmlns:cc="http://creativecommons.org/ns#"
   xmlns:rdf="http://www.w3.org/1999/02/22-rdf-syntax-ns#"
   xmlns:svg="http://www.w3.org/2000/svg"
   xmlns="http://www.w3.org/2000/svg"
   xmlns:sodipodi="http://sodipodi.sourceforge.net/DTD/sodipodi-0.dtd"
   xmlns:inkscape="http://www.inkscape.org/namespaces/inkscape"
   id="svg4190"
   version="1.1"
   inkscape:version="0.91 r13725"
   width="1114.3098"
   height="728.41278"
   viewBox="0 0 1114.3098 728.41278"
   sodipodi:docname="onset.svg">
  <metadata
     id="metadata4196">
    <rdf:RDF>
      <cc:Work
         rdf:about="">
        <dc:format>image/svg+xml</dc:format>
        <dc:type
           rdf:resource="http://purl.org/dc/dcmitype/StillImage" />
        <dc:title></dc:title>
      </cc:Work>
    </rdf:RDF>
  </metadata>
  <defs
     id="defs4194">
    <clipPath
       clipPathUnits="userSpaceOnUse"
       id="clipPath4204">
      <rect
         style="opacity:1;fill:none;fill-opacity:1;stroke:#ff0000;stroke-width:5;stroke-linecap:round;stroke-linejoin:miter;stroke-miterlimit:4;stroke-dasharray:none;stroke-dashoffset:0;stroke-opacity:1"
         id="rect4206"
         width="1122.7872"
         height="625.30286"
         x="166.29541"
         y="111.756" />
    </clipPath>
  </defs>
  <sodipodi:namedview
     pagecolor="#ffffff"
     bordercolor="#666666"
     borderopacity="1"
     objecttolerance="10"
     gridtolerance="10"
     guidetolerance="10"
     inkscape:pageopacity="0"
     inkscape:pageshadow="2"
     inkscape:window-width="1535"
     inkscape:window-height="876"
     id="namedview4192"
     showgrid="false"
     inkscape:zoom="0.46048924"
     inkscape:cx="558.6436"
     inkscape:cy="481.09645"
     inkscape:window-x="65"
     inkscape:window-y="24"
     inkscape:window-maximized="1"
     inkscape:current-layer="svg4190"
     inkscape:snap-bbox="true"
     inkscape:object-paths="true"
     inkscape:snap-intersection-paths="true"
     inkscape:object-nodes="true"
     inkscape:snap-smooth-nodes="true"
     inkscape:snap-midpoints="true"
     inkscape:bbox-nodes="true"
     inkscape:bbox-paths="true"
     inkscape:snap-bbox-edge-midpoints="true"
     inkscape:snap-bbox-midpoints="true"
     inkscape:snap-center="true"
     inkscape:snap-object-midpoints="true"
     inkscape:snap-global="true"
     fit-margin-top="0"
     fit-margin-left="0"
     fit-margin-right="0"
     fit-margin-bottom="0" />
  <flowRoot
     xml:space="preserve"
     id="flowRoot4939-7-9"
     style="font-style:normal;font-variant:normal;font-weight:normal;font-stretch:normal;font-size:25px;line-height:125%;font-family:'Abyssinica SIL';-inkscape-font-specification:'Abyssinica SIL, Normal';text-align:start;letter-spacing:0px;word-spacing:0px;writing-mode:lr-tb;text-anchor:start;fill:#000000;fill-opacity:1;stroke:none;stroke-width:1px;stroke-linecap:butt;stroke-linejoin:miter;stroke-opacity:1"
     transform="translate(214.76079,-22.339844)"><flowRegion
       id="flowRegion4941-0-1"><rect
         id="rect4943-8-2"
         width="433.23489"
         height="84.692535"
         x="239.96217"
         y="19.65484"
         style="font-style:normal;font-variant:normal;font-weight:normal;font-stretch:normal;font-size:25px;line-height:125%;font-family:'Abyssinica SIL';-inkscape-font-specification:'Abyssinica SIL, Normal';text-align:start;writing-mode:lr-tb;text-anchor:start" /></flowRegion><flowPara
       id="flowPara4945-1-7" /><flowPara
       id="flowPara4949-9-0">Sensible Activity Detected</flowPara></flowRoot>  <path
     id="path4232-7-6-2"
     style="fill:none;fill-rule:evenodd;stroke:#797879;stroke-width:1px;stroke-linecap:butt;stroke-linejoin:miter;stroke-opacity:1"
     d="m 41.959505,626.70551 1070.850395,0 m -1070.850395,-106.052 1070.850395,0 m -1070.850305,-106.052 1070.850305,0 m -1070.850305,-106.051 1070.850305,0 m -1070.850375,-106.052 1070.850375,0 M 41.959435,96.696698 l 1070.850465,0 m -110.7601,555.239572 -0.1357,-0.81436 0,-579.860232 m -130.11935,580.674932 -0.1357,-0.81436 0,-579.860232 m -130.11931,580.674932 -0.13572,-0.81436 0,-579.860232 m -130.11931,580.674932 -0.13572,-0.81436 0,-579.860232 m -130.11931,580.674932 -0.13572,-0.81436 0,-579.860232 m -130.1193,580.674932 -0.13572,-0.81436 0,-579.860232 m -130.11931,580.674932 -0.13572,-0.81436 0,-579.860232 M 90.264595,651.93865 l -0.13572,-0.81436 0,-579.860232"
     inkscape:connector-curvature="0" />
  <g
     id="g4139"
     style="stroke:#0078ff;stroke-width:2;stroke-miterlimit:4;stroke-dasharray:none;stroke-opacity:1"
     transform="translate(-159.19834,-49.192492)">
    <path
       id="path4275"
       style="fill:none;fill-rule:evenodd;stroke:#0078ff;stroke-width:2;stroke-linecap:butt;stroke-linejoin:miter;stroke-miterlimit:4;stroke-dasharray:none;stroke-opacity:1"
       d="m 297.41792,671.33708 1.34361,-5.8543 0.28792,6.62208 1.53555,-8.34958 0.95972,6.23819 0.57584,-4.31875 0.6718,5.75834 1.15167,-10.55695 0.47986,6.71806 1.05569,-5.1825 0.76778,12.0925 1.82347,-16.79514 0.47987,7.48583 1.05569,-3.26305 1.15167,9.69319 0.76777,-4.79861 0.67181,3.83889 0.67181,-5.1825 1.05569,6.04625 0.95972,-1.7275 0.67181,3.26305 0.76778,-3.55097 0.6718,4.03083 0.95972,-4.99055 0.76778,4.60667 0.95972,-2.20737 1.15167,2.68723 0.67181,-9.40528 0.76777,3.64694 0.76778,-9.02139 1.53556,13.1482 0.28791,-5.1825 0.76778,4.22278 1.73548,-319.13902 2.10374,317.73273 1.42511,-8.3471 0.40718,9.36504 0.95008,-4.07175 1.15366,5.29328 1.35725,-8.75428 1.42512,8.3471 0.40717,-3.66458 1.90016,6.98985 1.0858,-2.91809 0.81435,2.1716 1.42511,-6.10763 0.67863,4.3432 0.61076,-5.22542 1.01794,5.70046 0.47504,-26.46641 0.88221,20.42664 0.33932,-25.65207 1.42511,28.36657 1.76443,-4.3432 0.47504,5.83618 1.90015,-3.73244 1.01794,7.66847 1.01794,-4.27534 1.22153,0.81435 0.27145,-3.2574 0.61076,1.90015 0.74649,-8.89 2.03588,13.43679 1.58125,-11.12949 0.28792,8.73347 0.95972,-8.82944 1.7275,10.07708 0.38389,-4.89458 0.86375,2.30333 0.57584,-13.53208 1.53555,3.83889 0.19195,-39.63653 1.53555,0.47986 1.34361,-154.22736 1.15167,142.42278 1.34361,-57.96722 0.76778,95.49236 1.05569,-1.7275 1.63153,23.03333 0.95972,-11.03681 0.47986,9.02139 0.38389,-10.17305 1.24764,8.82944 0.47986,-5.37444 0.86375,6.04625 1.91945,-45.01097 0.41307,33.17396 1.49298,-7.53275 0.67862,21.44459 0.5429,-9.43291 0.67863,13.02962 0.95007,-13.77611 0.88222,5.29329 0.13572,-5.15756 1.15367,5.56473 -0.13573,-4.8861 1.01794,4.27534 0.40718,-7.2613 0.74649,10.24725 0.74649,-1.01793 0.27145,3.73244 0.76719,-2.44566 0.47986,2.68722 1.19965,-3.7909 1.15167,8.06166 0.28791,-4.4627 0.71979,3.16708 0.67181,-7.19792 0.67181,3.16709 0.43187,-3.1191 0.57583,3.21507 0.81577,-2.97514 0.57583,9.64521 0.81576,-3.21507 0.62382,3.1191 1.00158,-5.99167 0.67863,3.25741 0.33931,-6.7184 0.95008,3.05382 0.61076,-64.60521 1.01794,50.76124 0.88221,-9.63649 0.47504,28.90947 1.35725,-8.07565 0.61077,4.13962 1.01794,-3.80031 0.88221,5.90405 0.61076,-3.39313 0.89025,3.12413 0.6718,-2.49527 0.19195,4.1268 0.95972,-3.07111 0.6718,4.22278 0.57584,-3.26306 0.76777,2.07883 1.10369,-0.87917 0.95972,1.63152 1.19965,-2.83117 1.24764,2.01541 1.63153,-10.17306 1.7275,2.39931 0.096,-2.49528 1.15167,2.11139 0.76777,-12.0925 0.67181,12.04451 1.3916,-8.78145 0.52781,14.63576 0.47987,-2.20736 0.47986,3.21507 0.81576,-4.55868 0.52785,2.97514 1.58354,-55.37598 1.87146,56.38369 1.15166,-3.69494 0.7198,3.26306 0.52784,-3.21507 0.52785,3.40701 0.3359,-3.35902 0.81577,3.88687 1.87146,-176.25298 0.38388,153.55555 0.76778,-31.28694 0.76778,50.48139 1.34361,-4.65466 0.23993,6.67007 0.86375,-6.57409 0.62382,8.92541 0.86375,-4.31875 0.81577,5.75834 1.15166,-8.34959 0.62382,7.67778 0.67181,-6.28618 0.3359,3.02312 0.86375,-3.98284 0.62382,6.28618 0.91174,-7.91771 0.47986,7.82174 0.95972,-8.06167 1.10368,9.69319 0.52785,-3.64694 0.86375,2.35132 1.0077,-5.61438 0.67181,4.07882 0.76778,-2.20736 1.05569,4.12681 0.14396,-2.73521 0.86375,2.15937 0.67181,-14.53979 1.15166,3.83889 0.62382,-19.86625 1.67952,31.23896 0.76777,-1.48757 0.7198,3.07111 0.35989,-3.28705 0.52784,2.68722 0.88775,-2.99913 0.3359,2.92716 0.52785,-9.02139 0.52785,6.81402 0.43187,-7.72576 0.95973,8.25361 0.62382,-13.53208 0.86375,14.34785 0.62382,-2.20737 0.76777,3.74292 0.67181,-4.8466 0.6718,3.16709 1.0557,-6.81403 0.71979,5.99826 0.38389,-9.64521 0.81576,8.25362 1.15167,-29.41549 1.67951,23.94507 0.67181,-3.50299 0.38389,4.03084 1.10368,-2.54327 0.95972,10.89285 0.95972,-3.59896 0.43188,2.35132 0.38445,-4.68298 0.78042,3.96996 0.57683,-3.3592 0.81435,3.96997 0.50897,-5.42901 0.37325,2.34126 1.25546,-11.90989 1.11259,13.61232 0.71979,-5.47042 0.52785,5.80632 0.57583,-4.84659 0.91174,5.61437 0.6718,-17.56291 0.52785,10.50895 1.58354,-155.09111 0.81576,161.08938 0.86642,-6.36508 0.40717,6.7184 0.61076,-6.78626 1.35726,10.45084 0.5429,-8.61855 0.74649,3.32527 0.20358,-12.48672 0.61077,8.68641 0.0679,-9.9758 0.74649,9.63649 0.40717,-7.8042 1.28939,14.31901 0.74649,-3.59672 0.81435,4.41107 0.88222,-3.18954 0.95007,3.74337 0.74649,-1.84322 0.83834,2.16266 0.51892,-1.34831 0.61076,2.10374 0.47504,-2.1716 0.5429,1.90015 0.88221,-11.67237 0.78713,6.76943 1.96792,-523.8975 21.26832,0 1.0858,488.49005 3.2574,-488.49005 3.80031,525.95021 1.39477,-3.87618 0.93573,5.73434 0.35989,-53.43254 2.11139,24.76084 L 551.07254,146 l 10.365,0 1.91945,445.20028 1.34361,-46.06667 0.95972,84.45556 0.76778,-57.58334 1.7275,54.32028 L 568.92337,146 l 4.03084,0 0.38389,2.38444 1.78371,-1.28539 1.2874,57.909 1.15166,-52.59277 4.99056,523.4325 1.7275,-8.6375 1.15167,4.22278 -0.19195,-332.25584 3.26306,319.01167 1.53555,-3.64695 1.53556,18.81056 2.68722,-4.22278 0.95972,2.49528 2.30334,-2.68722 0.76777,4.79861 0,0 0.25732,1.19978 0.67863,-4.75038 0.61076,3.2574 0.74649,-10.92588 0.74649,2.64664 0.40717,-7.26129 0.61077,5.02183 0.5429,-5.70046 0.40717,5.6326 0.61077,-5.15756 0.13572,11.53664 0.81435,-5.42901 0.67863,4.61466 0.33931,-4.68252 0.5429,4.34321 0.61077,-6.24336 1.28939,11.87595 0.74649,-5.56473 0.67862,5.08969 0.47504,-6.10763 0.5429,5.56473 0.40718,-5.15755 0.88221,8.41496 0.5429,-4.0039 0.74649,3.66459 0.47504,-6.37909 0.81435,2.37519 0.27145,-7.87206 0.47504,6.58267 0.40717,-8.68641 1.35726,13.43679 0.0679,-5.15755 1.01794,2.51091 0.13572,-9.70435 0.88222,6.24336 0.27145,-10.85802 0.74649,6.85413 0.20358,-8.3471 0.61077,9.16145 0.40717,-7.60061 0.95008,14.11542 0.47504,-3.66458 0.74649,3.86817 0.33931,-4.41107 0.74649,4.13962 0.13572,-3.05382 0.61077,2.85023 1.01793,-156.69476 0.47504,135.11445 1.22153,-16.82993 0.67863,32.37047 0.5429,-3.12168 0.20358,5.63259 0.95008,-3.2574 0,6.37908 0.81435,-4.34321 0.27145,6.78627 0.61077,-4.07176 0.27145,3.52885 0.81435,-3.93603 0.47504,4.07176 0.61076,-4.00389 0.5429,4.07175 0.5429,-4.27534 0.47504,3.86817 0.37324,-6.75233 0.6447,6.37908 0.40717,-6.7184 0.95008,8.00779 0.5429,-4.13962 0.47504,3.73245 0.5429,-3.66458 0.61076,3.15561 0.44111,-3.66458 0.67863,3.15561 0.40717,-2.68058 0.71256,5.05577 0.47504,-2.47699 0.61076,2.57878 0.44111,-2.74843 0.5429,2.1716 0.5429,-3.3592 0.61076,2.98596 0.61077,-4.17355 0.74649,5.12362 0.61076,-4.00389 0.57683,3.56279 0.37325,-4.88611 0.61076,3.3592 0.16966,-11.19733 0.71255,5.90404 0.13573,-6.44694 0.81435,7.66847 0.37324,-5.76832 0.27146,8.48282 0.64469,-5.83618 0.64469,8.92393 0.6447,-5.08969 0.61076,3.18954 0.27145,-2.47698 0.67863,2.34126 0.37324,-2.23947 0.57684,2.47698 0.13572,-4.75038 0.57683,4.13962 0.30539,-10.41691 0.5429,7.09164 0.23752,-7.1595 0.40717,7.43095 0.50897,-6.71839 0.44111,10.72229 0.4411,-1.93409 0.23752,2.68058 0.40718,-1.76443 0.23752,2.64664 0.44111,-2.44305 0.27145,2.10374 0.50897,-3.461 0.33931,2.57878 0.64469,-3.69851 0.23752,2.20554 0.50897,-2.88417 0.33931,3.12168 0.47504,-4.68252 0.5429,5.42901 0.40718,-3.56278 0.37324,3.8003 0.47504,-4.17355 0.37325,2.98596 0.4411,-3.96997 0.44111,2.34126 0.40718,-1.90015 0.5429,2.30733 0.33931,-3.76637 0.74649,4.10568 0.33931,-4.3432 0.47504,3.56278 0.16966,-4.54679 0.50897,4.445 0.0767,-10.46234 0.6718,10.89285 0.3359,-9.35729 0.43188,11.46868 0.76778,-4.36674 0.38389,5.47042 0.38389,-2.7832 0.47986,4.07882 0.71979,-3.26305 0.43187,3.07111 0.57584,-3.31104 0.52784,2.97514 0.52785,-3.16709 0.57583,3.02313 0.33591,-2.92716 0.62382,3.35903 0.28791,-2.35132 0.57584,2.25535 0.38389,-2.92715 0.62381,2.73521 0.52785,-4.70264 0.52785,4.94257 0.47986,-2.4473 0.52785,2.25535 0.3359,-4.1268 0.71979,4.36673 0.3359,-5.95028 0.57584,5.42243 0.43187,-3.35902 0.76778,3.50298 0.28792,-2.3993 0.57583,2.44729 0.3359,-1.96743 0.57584,2.25535 0.38389,-3.26306 0.38388,2.49528 0.43188,-2.87917 0.3359,2.0634 0.57584,-3.55097 0.52784,3.16709 0.72017,-3.39842 0.40717,4.47893 0.74649,-3.12168 0.67863,4.13962 0.47504,-2.30733 0.40717,2.3752 0.5429,-5.97191 0.74649,5.15755 0.40718,-7.05771 0.81435,5.29329 0.20359,-7.93993 0.5429,3.73244 0.40717,-6.31122 0.40718,6.37909 0.47504,-6.7184 0.5429,8.41496 0.47503,-5.15756 0.33932,7.12558 0.40717,-6.10764 0.5429,8.48283 0.81436,-4.07176 0.20358,2.44306 0.47504,-9.56863 0.33931,8.14351 0.54291,-10.24725 0.47503,8.07565 0.81436,-7.60061 0.47503,10.92588 0.44729,-3.66636 0.38389,4.60666 0.52784,-4.1268 0.43188,2.68722 0.28791,-3.16708 0.43188,2.11138 0.6718,-4.4627 0.38389,3.69493 0.7198,-4.70264 0.52784,4.46271 0.38389,-3.35903 0.57583,3.35903 0.52785,-4.27077 0.38389,4.55868 0.57583,-3.59896 0.47986,6.47813 0.23994,-6.19021 0.62381,5.1825 1.3916,-28.40778 0.62382,20.58605 0.81577,-5.42243 0.43187,14.44381 0.95806,-6.4968 0.30538,6.95591 0.67862,-4.17355 0.40718,4.85218 0.78042,-5.19149 0.50897,4.0039 0.47504,-4.92004 0.4411,3.46099 0.50897,-2.91809 0.47504,3.96996 0.6447,-3.3592 0.64469,4.27534 0.50897,-2.47698 0.44111,3.12168 0.57683,-2.54485 0.5429,2.61271 0.50897,-4.24141 0.6447,3.05382 0.20358,-4.03783 0.95008,3.46099 0.13572,-4.13961 0.81436,2.51091 0.33931,-3.8003 0.95008,5.90404 0.47503,-4.3432 0.74649,3.8003 0.47504,-4.75038 0.67863,3.52885 0.40717,-3.39313 0.81435,3.25741 0.40718,-3.39313 0.61076,3.80031 0.5429,-11.94382 0.67863,5.70046 0.0679,-19.27298 1.22153,15.40481 -0.33931,-15.87985 1.01794,12.01168 0.0679,-11.19733 1.01794,13.57252 0.74649,-3.52886 0.40717,9.43291 0.47504,-7.93993 0.67863,11.46878 0.35865,-6.00686 0.28792,5.08653 2.87917,-235.22791 3.07111,212.38652 1.05569,-14.8757 0.67181,3.16709 1.05569,-42.13181 0.47986,41.93986 1.34361,-25.43264 0.096,45.01097 1.7275,-13.53208 0.19194,28.59972 0.86375,-11.70861 0.67181,9.88514 0.95972,-15.25958 1.05569,7.5818 0.19195,-7.96569 0.95972,7.19792 -0.096,-19.77028 1.91944,24.47291 -0.096,-17.37097 1.05569,6.81403 0.57584,-40.30833 0.76777,31.19097 0.57584,-29.65542 0.38389,50.96125 1.24761,-6.71805 0.47986,10.365 0.6718,-6.04625 1.15167,8.92541 0.38389,-7.00597 0.6718,5.66236 0.57584,-8.54153 1.53555,5.85431 0.096,-20.73 1.0557,16.69917 0.76778,-17.275 1.15166,24.37694 0.38389,-9.69319 1.15167,6.04625 0.6718,-23.70514 0.47987,18.04278 0.38388,-18.42667 1.15167,21.88167 0.67181,-1.91945 0.6718,3.35903 0.38389,-6.2382 0.86375,5.66237 0.38389,-7.10195 1.05569,4.89458 -0.19194,-20.25013 0.95972,3.55097 -0.19194,-23.5132 1.43958,21.7857 -3e-5,-22.07361 1.91944,46.45055 0.95973,-6.23819 1.43958,7.48583 0.28792,-5.56639 0.95972,5.75834 0.19194,-4.03084 0.38389,3.55097 0.95972,-3.16708 0.19195,2.59125 1.24764,-1.43958 0,5.75833 0.57583,-3.26305 0.47986,3.35902 0.57584,-3.64694 0.57583,3.55097 0.38389,-4.1268 1.05569,3.93486 0.38389,-11.32473 1.53556,12.95625 0,-12.38041 1.82347,10.365 -0.67181,-14.39584 1.82348,7.19792 0.19194,-20.44208 1.53556,22.4575 0,-19.0025 1.24763,23.22528 0.95973,-23.32125 1.34361,18.71458 0.38389,-10.65292 0.57583,10.26903 0.38389,-9.02139 1.34361,16.79514 0.47986,-11.90056 0.67181,5.66237 0.28791,-6.2382 0.86375,4.99056 0.86375,-11.61264 0.38389,10.46097 0.57583,-6.71806 1.15167,10.65292 0.19195,-8.34958 0.6718,4.03083 1.15167,-11.42069 0.57583,10.365 0.096,-9.21334 1.34362,11.03681 -0.096,-10.94083 1.34361,7.19791 0,-12.57236 1.15167,19.86625 0.95972,-2.59125 0.38389,5.1825 1.24763,-11.80458 0.43188,8.06166 0.6718,-8.54152 0.86375,9.06937 0.62382,-8.44555 0.95972,14.29986 0.57584,-6.86202 0.71979,3.455 0.38389,-7.2459 0.71979,6.04625 0.43187,-7.2459 0.52785,4.07882 0.71979,-5.03854 1.58354,10.65291 0.33591,-6.23819 1.0077,5.1825 0.28792,-3.79091 0.62382,3.55098 0.28792,-9.83716 0.95972,9.45327 0.47986,-14.29986 1.67951,14.25187 0.47987,-6.62208 0.71979,6.67007 0.47986,-7.34188 0.62382,5.71035 0.91173,-11.42069 1.53556,15.23558 1.34361,-1.07968 0.3359,1.87146 0.71979,-2.87917 0.57584,2.11139 1.00771,-1.29563 0.76736,2.53139 5.37486,0 0.14396,-3.53909 0.47986,1.91944 0.38389,-7.48583 0.57583,5.23048 0.47986,-9.06937 0.57583,7.48583 0.7198,-4.22278 0.71979,8.3016 0.57583,-4.79861 0.71979,2.78319 0.43188,-10.79687 0.91173,10.365 0.52785,-5.95028 0.43188,6.81403 0.52784,-9.69319 0.62382,8.68548 0.76778,-5.32646 0.86375,6.81403 0.38389,-5.80632 1.00771,8.01368 1.7275,-263.05985 0.003,238.57904 0.71255,-26.26283 0.5429,25.51634 0.50897,-23.71798 0.57684,24.12516 0.4411,-22.08928 0.16966,29.24878 0.71256,-15.84592 0.4411,19.17119 0.74649,-3.39313 0.30538,14.48867 0.71256,-2.17161 0.50897,5.49687 0.50897,-3.66458 0.67863,3.49493 0.82784,-49.29351 1.05569,29.94334 1.10368,-116.94215 1.19965,131.81784 0.38389,-330.72026 0.95972,145.49388 0.95973,-268.72221 1.7551,455.02994 0.95008,-3.25741 0.95008,1.96802 0.5429,-5.6326 0.61076,4.95397 0.47504,-6.92198 0.74649,5.49687 1.22152,-30.80963 0.47504,29.18092 0.88222,-5.97191 0.5429,14.25115 1.11689,-3.66694 0.57584,2.3993 0.6718,-4.1268 0.57584,4.1268 0.95972,-4.60666 0.76778,5.56638 0.38389,-23.03333 1.43958,7.58181 0.096,-14.20389 0.95972,14.68375 0.76778,-6.62209 1.43958,20.63403 0,-13.62805 1.63153,14.4918 0.19195,-5.75833 0.76777,5.08653 0.28792,-11.51667 1.15167,10.55694 0.19194,-11.70861 0.57583,2.87917 0.28792,-34.35805 1.34361,4.99055 -0.096,-18.90653 0.86375,17.46695 0.38389,-14.77972 2.01542,56.71958 1.34652,-17.70861 1.01794,6.44695 0.33931,-55.64734 1.22153,34.20276 0.5429,-29.24879 0.88222,47.3681 1.56084,-44.99291 0.81435,48.11459 0.88221,-2.91809 0.61076,10.17939 1.8323,-124.32429 0,96.70421 1.15366,-44.72146 0.27145,55.51161 1.0858,-3.05381 0.40718,15.94771 1.15366,-5.02183 0.27145,13.38986 6.92199,0 1.15366,-8.02872 1.01794,6.51481 0.27145,-6.24336 0.74649,5.83619 0.5429,-8.68642 0.88222,4.27535 0.88221,-58.63329 0.61076,64.96544 6.24336,0 1.01794,-4.36417 0.74649,3.12168 0.74649,-5.22542 1.28939,6.46791 3.73244,0 0.67863,-2.26043 1.15366,0.30733 0.81435,-0.7145 0.40718,2.51092 0.88221,-37.3923 0.67863,36.30649 0.74649,-5.02183 0.5429,4.24336 0.95008,-1.96802 0.81435,1.76443 1.01794,-2.03588 0.88221,4.26043 2.78237,0 1.28939,-73.38044 0.74648,73.38044 3.12168,0 0.47504,-11.89692 1.01794,11.60451 0.27145,-11.60451 1.22153,11.53665 0.67863,-513.92352 2.08015,481.13724 0.19194,-495.60054 2.20736,498.06571 -0.28791,-498.92946 1.98531,418.26057 0.50997,-418.45252 1.47251,525.22585 0.15901,-525.0339 3.53451,523.8987 -1.61506,-491.65204 3.4056,402.03327 1.00912,-424.0109 2.59125,513.93123 1.05569,-0.86375 0.86375,4.99055 0.95973,-1.7275 0.6958,1.3916 0.57586,-5.30246 0.79177,3.55096 0.76777,-8.66148 0.91174,8.92541 0.5998,1.4876 0.6958,-2.4233 0.69579,3.64695 0.83976,-5.15851 0.71977,5.32646 0.7918,-3.52698 0.9357,3.75503 3.1671,0 0.5758,-3.875 0.8638,3.875 3.8389,0 0.096,-3.68305 1.2672,2.03342 1.0858,-500.14741 2.3074,500.96176 1.2215,-7.46489 1.2215,8.30017 12.8939,0 0.4072,-51.59651 1.7644,41.80336 0.8144,-24.56626 1.3572,34.35941 2.5788,0 0.9501,-313.54617 1.6287,311.35364 2.3073,-156.49117 0.9501,157.71269 0.8143,-5.29328 1.2216,5.15756 0.8143,-508.1552 2.3073,483.18176 1.493,-15.20122 1.493,40.44611 1.0858,-3.93603 1.0858,2.7145 1.0858,-5.02183 1.9002,7.07864 2.1716,0 1.9001,-484.28849 1.2215,443.27855 1.2216,-16.96566 1.2215,53.74719 1.493,-7.19344 1.6287,6.92199 0.4072,-18.18718 1.2215,12.89389 0.2714,-5.9719 1.2216,11.12946 1.0858,-2.1716 1.0858,5.56473 1.0926,-1.60541 1.3504,2.84787 2.5788,0 0.1357,-6.40001 1.9002,5.29328 1.0392,-10.69077 1.6836,9.73105 1.8438,-3.51098 2.4019,4.38154 2.1251,-2.62535 1.0858,2.13044 1.3572,-6.06647 1.6287,6.24336 1.3573,-10.04366 1.2215,7.46488 1.3572,-3.66458 0.6787,7.32916 1.6287,-87.94993 1.6287,88.37804 2.7145,0 2.1716,-10.0646 0.9501,4.47894 0.8143,-9.22932 2.9859,13.50467 0.7465,-6.31124 1.2216,6.58268 0.8143,-4.13962 1.4252,4.61466 0.475,-12.48672 1.6287,4.13962 0.9501,-10.99374 0.7465,9.16145 0.475,-4.95397 1.6966,10.99374 1.7644,-25.78779 0.475,13.91183 1.0859,-5.15755 1.2426,12.77544 0.8637,-7.10195 1.4396,4.99056 2.1114,-23.32125 1.1516,10.26902 0.7678,-6.14222 1.7275,24.47292 0.7678,-3.83889 0.4799,6.91 0.1919,-31.28694 1.0557,5.37444 0.7678,-57.19944 1.6315,50.57736 0.7678,-7.86972 0.4798,10.17305 0.5759,-10.07708 1.6315,31.67083 0.3839,-9.69319 0.7678,9.3093 1.5355,-28.79166 0.5759,9.3093 0.5758,-5.47042 0.9597,20.15417 0.5758,-15.83542 0.8638,15.93139 0.2879,-17.65889 1.6383,18.58568 0.2812,-29.23859 0.8637,9.02139 1.1517,-7.67778 0.2879,14.87569 0.9597,-4.79861 0.3839,12.0925 1.1517,-12.18847 0.8637,8.44556 0.6718,-124.95583 1.2477,123.90013 1.4395,-44.43514 1.9195,65.06917 1.0556,-5.95028 1.4397,5.75833 1.0557,-6.76603 1.2476,4.84659 0.1919,-224.95888 2.9621,197.98569 1.9002,-478.56711 0.5428,444.6358 1.9002,-44.51787 0.5429,79.80643 2.7145,-255.7063 -0.5429,257.06355 2.4431,-152.55514 1.6287,171.55667 2.1716,-162.87026 1.0858,164.22751 1.3573,-14.65832 1.0858,16.55848 0.5429,-103.15117 1.9001,87.94994 1.6287,-95.822 1.6287,104.23696 2.7145,-264.12126 2.986,199.51606 1.3572,-407.17564 2.7145,244.57684 1.9002,-58.63329 -0.8144,116.45223 1.6287,-210.64553 1.6287,353.97135 -0.2714,-355.87151 4.3432,373.51579 -1.9002,-360.48616 3.8004,321.12585 0.8143,-415.31915 2.986,438.93534 1.3572,-6.51481 1.6287,32.03115 1.0858,-182.95759 3.2574,160.4272 M 250,673.03647 l 1.26492,-10.50072 1.14202,11.77647 1.7275,-5.37444 0.19195,4.22278 1.53555,-4.03084 0.95973,2.87917 0.95972,-2.49528 1.15167,2.49528 2.30333,-23.03333 1.91944,12.0925 0.95973,-17.08306 0.95972,17.85083 0.76778,-11.13277 1.53555,19.38638 1.15167,-19.38638 1.15166,5.95027 2.3114,-327.00212 1.52749,324.50685 1.15167,-12.86028 0.57583,11.99653 0.86375,-9.6932 0.76778,9.02139 0.86375,-9.50125 0.57584,22.55347 0.95972,-7.86972 0.57583,7.29389 1.15167,-10.74889 1.34361,15.16361 0.76778,-3.16708 0.6718,5.75833 0.95972,-8.25361 0.57584,2.11139 0.28791,-4.03083 1.0557,5.56638 0.6718,-3.83888 0.76778,5.27847 0.47986,-5.56639 0.67181,4.51069 0.38389,-16.02736 0.47986,10.74889 1.7275,-33.30236 0.28792,9.59722 0.47986,-11.61264 0.57583,32.63056 0.95972,-13.24417 1.24764,15.64347 0.88565,-52.66335 1.0858,61.75497"
       inkscape:connector-curvature="0" />
  </g>
  <path
     style="fill:none;fill-rule:evenodd;stroke:#ff0000;stroke-width:2.5;stroke-linecap:butt;stroke-linejoin:miter;stroke-miterlimit:4;stroke-dasharray:none;stroke-opacity:1"
     d="m 90.801655,613.32482 c 1.51323,-1.51323 2.93314,-0.0954 3.41732,-2.12021 1.37277,-5.74066 1.00009,-26.70528 1.33456,-31.95988 0.31081,-4.88284 -0.14617,-10.38105 1.53131,-10.1848 3.921255,0.45874 6.472295,34.22027 14.875335,36.32496 3.29088,0.82426 2.9163,-3.33394 5.48639,-3.52885 5.85955,-0.44438 5.0305,6.94416 8.93459,8.18044 2.87912,0.91172 1.74257,2.26555 4.57207,2.60089 1.80947,0.21445 6.5433,6.08337 12.51566,7.1344 3.02676,0.53607 2.87082,-0.73979 3.59076,-3.43408 1.17766,-4.40718 1.24796,-20.91928 1.62089,-28.47917 0.26345,-3.40606 0.1059,-10.16167 1.82348,-9.23733 3.53268,1.90116 4.17786,12.35571 6.09423,16.50722 0.75157,1.62817 4.59039,15.08879 9.54924,16.41125 0.76472,0.20395 3.62207,0.98068 4.4627,1.24764 2.7198,0.86375 3.33509,4.13766 5.23049,4.07882 5.48018,-0.17012 3.80134,2.12265 10.0552,1.68434 6.07848,-0.42603 4.43992,-33.41635 7.38957,-37.27949 0.9393,-1.2302 2.49402,-1.7122 4.16123,0.90384 1.66721,2.61605 1.05195,13.01838 5.74788,14.26175 2.49373,0.66028 8.33831,8.24178 11.32286,11.91968 2.98454,3.6779 6.37133,7.47586 9.94532,8.36936 3.00682,0.75171 2.06697,-3.24666 3.42723,-3.46864 4.83697,-0.78934 7.2285,5.67371 14.38688,7.32916 3.02436,0.69941 6.72694,-2.51946 7.12557,-2.91809 1.19852,-1.19852 4.17085,0.4804 5.02183,-1.22154 0.28328,-0.56655 -0.076,-1.42934 0.69656,-2.72546 0.77256,-1.29612 4.78071,0.97832 5.79101,-0.50718 1.01031,-1.48551 1.05869,-8.83471 2.05522,-9.96942 0.99654,-1.13472 3.16102,0.89871 3.87607,1.93688 3.66077,5.315 5.14056,8.10108 9.84008,10.45084 0.56572,0.28286 3.1651,1.94448 5.25597,2.42706 2.09087,0.48257 2.16165,-0.45504 4.37655,-1.25415 2.48571,-0.89681 4.12431,1.3761 6.2278,1.56949 2.10351,0.1934 5.36652,1.38733 7.28083,0.85428 2.79244,-0.77757 1.39702,-5.63589 5.70047,-3.39313 3.57683,1.86409 11.85276,4.39102 12.88565,0.78589 0.33665,-1.175 -0.76485,-6.65968 0.95668,-6.76149 2.73084,-0.16148 3.44425,2.12609 6.0633,2.50793 3.25238,0.47418 0.67859,2.82178 9.36635,6.63273 2.26317,0.99274 2.29831,-5.02075 2.34509,-6.12093 0.43927,-10.33051 0.62897,-21.05523 0.84249,-29.58756 2.68372,-107.24547 5.68462,-213.96899 8.86876,-320.6136 0.39101,-13.09555 1.61757,-44.22479 2.92174,-57.52712 3.18955,-32.53278 5.28612,-52.69064 6.104,-57.90713 1.24117,-7.91639 1.03753,-7.42304 2.95783,-7.70993 1.03744,-0.15499 2.31392,0.0968 2.33543,2.75596 0.22453,27.74541 0.67863,37.68931 2.30733,48.18246 3.27569,21.10407 3.92522,20.80923 4.34321,67.8626 0.0566,6.37556 1.2514,94.76853 4.20748,97.45071 1.7034,1.54556 1.98438,-16.27072 2.03589,-17.78 l 1.32032,-38.68666 c 1.0512,-30.8012 1.88888,-41.7597 3.45734,-74.34917 0.10616,-2.20578 1.57107,-23.93954 2.63841,-25.79402 0.48825,-0.84831 2.59863,-1.03442 2.92837,0.69776 1.14885,6.03521 1.66723,45.02528 1.66723,46.11038 0,9.42376 0.95034,69.99252 3.80031,71.12002 4.74535,1.87736 3.84381,-51.24897 4.41107,-59.1762 1.6938,-23.67022 1.60191,-44.53126 5.42901,-42.61771 3.16413,1.58206 2.98595,30.77765 2.98595,34.4742 0,35.38661 0.46043,41.57733 1.39018,101.05907 1.45112,26.53997 1.04667,61.9306 4.03883,66.42585 2.12068,3.18598 4.75171,63.15023 7.08061,109.96601 2.32889,46.81578 9.33522,69.76888 20.62332,88.65854 2.80069,4.68672 8.99288,4.75936 11.53135,1.20424 2.53846,-3.55512 -0.43907,-10.78353 2.46929,-10.48529 5.68323,0.5828 4.6447,7.14003 8.46213,9.41048 3.81743,2.27046 9.41972,5.69939 16.67598,5.37958 22.90006,-1.00928 34.86641,0.24034 63.72498,-2.71733 5.08894,-0.52156 10.45975,5.86807 16.64081,2.77754 3.98685,-1.99343 3.1728,-5.67175 7.23255,-5.25628 3.39916,0.34786 0.49761,-40.82042 7.07199,-40.54616 10.41462,0.43446 5.42094,13.58807 14.26561,18.08362 6.24487,3.17413 6.00292,10.73923 9.35058,12.45455 13.63913,6.9886 11.41751,-0.30245 15.48632,0.70192 4.60766,1.13739 2.9392,7.75765 12.14424,10.92105 2.85896,0.98251 4.00397,-5.08529 8.46339,-3.89344 10.17207,2.71864 10.98612,-1.32342 22.53884,3.33184 5.21444,2.1012 9.03359,-1.08002 11.8201,0.55595 10.3747,6.09104 11.10749,5.3048 23.06178,2.83742 6.49748,-1.34108 -1.05801,-22.45469 4.4366,-22.71069 2.10367,-0.098 3.11872,0.87726 4.6955,4.85863 0.41316,1.04325 1.54254,1.58007 2.62518,1.22408 1.83327,-0.60281 2.17303,-12.98223 2.79685,-24.84854 0.13346,-2.53875 -0.29807,-21.70745 1.62446,-21.58431 1.19419,0.0765 3.04964,0.19574 3.37525,1.6601 0.77187,3.47127 2.19321,12.8828 2.40613,13.73448 1.02043,4.08174 1.59156,6.29356 2.42842,6.88078 1.25305,0.87927 2.62836,13.05195 3.97819,17.10142 1.2692,3.8076 2.069,6.65024 4.72144,6.77262 2.05402,0.0948 3.63095,4.01366 5.01643,5.95403 0.31147,0.43622 2.61162,0.58385 3.76903,-2.95507 0.65798,-2.01189 1.43367,0.0894 3.69882,-2.2725 1.93852,-2.0213 2.4386,0.40641 3.29875,-2.9761 0.43557,-1.71286 1.86278,-1.44005 4.84993,-1.72922 2.3977,-0.2321 0.35772,-5.93021 4.0301,-5.57613 2.51742,0.24272 3.62157,8.50766 8.27925,18.05145 0.8086,1.65686 2.10098,2.35275 7.71545,2.59424 3.58561,0.15423 3.13215,4.1682 9.28526,6.24689 3.93872,1.33061 1.19363,2.85228 10.60802,1.47004 3.40968,-0.50061 5.71629,1.54719 7.27265,-0.67467 1.15274,-1.64565 0.56083,-0.23301 5.23297,-0.74369 3.27001,-0.35742 1.05637,-34.36466 3.37948,-44.19014 1.38711,-5.86669 1.43959,-7.60539 1.43959,-35.2218 0,-2.51777 0.51857,-28.17923 1.1203,-41.73408 0.60173,-13.55484 1.76649,-47.15377 2.8669,-63.81896 1.1004,-16.66519 1.44294,-13.87265 4.40027,-15.57712 1.92135,-1.10738 1.52042,-8.67002 1.59111,-11.99216 0.15035,-7.06554 2.36549,-4.10217 4.41726,-3.73408 2.99145,0.53666 7.08015,182.51746 18.33068,193.76792 2.75256,2.75255 4.31663,2.23222 4.27471,-1.72606 -0.0921,-8.69902 -0.0319,-23.6946 0.17843,-30.39282 0.38961,-12.40778 0.39024,-13.04032 0.87902,-15.24512 0.57956,-2.61432 3.44156,-2.29776 3.64125,1.72921 0.19813,3.99555 2.35154,20.61353 3.83884,28.31181 3.0194,15.6276 6.64481,28.78527 8.8774,29.89534 0.9709,0.48276 4.5113,2.85306 6.7704,0.59625 2.9697,-2.96686 1.7923,-13.54459 2.5901,-17.90682 1.8035,-9.86197 3.091,1.0343 4.523,-2.36425 3.3083,-7.85161 2.3701,-11.2162 2.525,-26.06769 0.038,-3.63537 0.4914,-13.4462 1.8263,-15.96763 2.3559,-4.44989 4.9495,17.62915 5.1648,18.82317 1.7448,9.67585 2.3034,18.75521 5.1717,18.95489 2.7782,0.19341 1.6582,-25.26659 2.6197,-25.58959 2.1814,-0.73279 3.0875,0.3028 3.5482,0.95708 2.0903,2.96882 0.86,11.24424 3.9406,20.23282 1.742,5.08296 5.0838,16.58089 6.2767,21.6104 1.6338,6.88807 5.7125,11.27506 12.9552,15.69005 1.7559,1.07033 5.0768,2.01768 8.8128,1.39184 2.6084,-0.43697 2.18,-7.40167 4.9758,-5.73855 4.1649,2.47759 6.8694,1.87526 13.961,5.34362 3.4209,1.67312 5.4224,-7.13133 10.1492,-6.89359 4.0377,0.20308 3.2771,-4.13863 8.2169,-5.2107 3.5747,-0.77582 2.6481,-8.91038 5.0932,-8.89811 3.3687,0.0169 2.7137,-0.92124 4.7908,-1.06595 4.7024,-0.32761 5.8706,0.15627 7.0037,-1.18747 1.1332,-1.34374 3.5748,0.0916 4.5855,-1.50034 1.0107,-1.59189 0.015,-7.45862 1.5667,-9.01055 1.6443,-1.6443 3.0309,-0.85932 3.6369,-0.2144 0.606,0.64491 1.6789,2.39739 1.7363,4.0317 0.057,1.63432 0.7974,4.61746 3.2241,3.32273 2.1562,-1.15038 1.7532,-16.12645 2.0551,-16.54529 3.38961,-4.70285 2.9191,-8.45737 2.8238,-24.23607 -0.074,-12.2518 0.7164,-26.93871 1.4793,-26.95772 2.5536,-0.0636 2.5054,-2.87228 3.5523,-2.91096 1.4731,-0.0544 1.6326,2.83 3.48025,7.49035 1.7478,4.40895 1.3942,-1.89988 5.3828,11.97187 1.3053,4.53948 -0.01,9.19709 4.1598,12.59903 0.787,0.64228 1.5028,2.31398 3.5385,-0.009 1.7802,-2.03146 1.2619,-13.2924 1.7507,-20.45141 0.5234,-7.66417 1.6335,-13.41098 2.5669,-44.98486 0.3011,-10.18649 0.6244,-11.473 1.1622,-12.92468 1.8767,-5.06526 1.8643,-34.82196 1.8643,-45.11371 0,-10.17276 0.7155,-18.4176 1.2488,-30.58669 0.3261,-7.4383 0.2337,-9.77107 1.9661,-10.08225 0.7577,-0.1361 1.6538,-7.40808 2.6563,-5.10915 1.6028,3.67564 0.9997,5.38309 2.3555,6.13171 1.3513,0.74618 0.5167,10.82111 1.8815,13.50084 0.9671,1.89902 0.8897,-8.92856 1.7567,-6.62308 1.2371,3.28984 0.6166,18.84117 3.6733,20.48136 1.1993,0.64357 1.4585,2.3168 2.6065,24.12525 0.5416,10.28806 -0.3809,16.2759 3.1251,22.50693 3.2895,5.84626 3.5455,46.33567 6.3763,75.67266 2.9605,30.68178 4.1123,45.4468 14.2657,70.52195"
     id="path4216"
     inkscape:connector-curvature="0"
     sodipodi:nodetypes="cssssssscscssssssssssssssssssssssssssssssssssssssssssssssssscssssssssssssssssssssssssssssssssssssssssssssssssssssssssssssssssssssssssssssssssssssssssssssssssssssssc" />
  <path
     id="path4297-75-6"
     style="fill:none;fill-rule:evenodd;stroke:#000000;stroke-width:3;stroke-linecap:butt;stroke-linejoin:miter;stroke-miterlimit:4;stroke-dasharray:none;stroke-opacity:1"
     d="m 36.049855,96.445508 4.68252,0 m -4.68207,106.052002 4.68252,0 m -4.68207,106.052 4.68252,0 m -4.68207,106.052 4.68252,0 m -4.68207,106.052 4.68252,0 m -4.68207,106.052 4.68252,0 m 961.179475,32.102 0,-4.68252 m -130.25505,4.68252 0,-4.68252 m -130.25503,4.68252 0,-4.68252 m -130.25502,4.68252 0,-4.68252 m -130.25504,4.68252 0,-4.68252 m -130.25502,4.68252 0,-4.68252 m -130.25504,4.68252 0,-4.68252 m -130.255035,4.68252 0,-4.68252 m -48.16945,-584.300492 1070.850485,0 0,583.702392 -1070.850485,0 z"
     inkscape:connector-curvature="0" />
  <flowRoot
     xml:space="preserve"
     id="flowRoot4406"
     style="font-style:normal;font-weight:normal;font-size:22.5px;line-height:125%;font-family:sans-serif;letter-spacing:0px;word-spacing:0px;fill:#000000;fill-opacity:1;stroke:none;stroke-width:1px;stroke-linecap:butt;stroke-linejoin:miter;stroke-opacity:1"
     transform="translate(105.95313,-158.67881)"><flowRegion
       id="flowRegion4408"><rect
         id="rect4410"
         width="147.41333"
         height="112.86333"
         x="-105.95333"
         y="186.00558" /></flowRegion><flowPara
       id="flowPara4412">1.0</flowPara><flowPara
       id="flowPara4414" /><flowPara
       id="flowPara4418" /><flowPara
       id="flowPara4422" /></flowRoot>  <flowRoot
     xml:space="preserve"
     id="flowRoot4406-1"
     style="font-style:normal;font-weight:normal;font-size:22.5px;line-height:125%;font-family:sans-serif;letter-spacing:0px;word-spacing:0px;fill:#000000;fill-opacity:1;stroke:none;stroke-width:1px;stroke-linecap:butt;stroke-linejoin:miter;stroke-opacity:1"
     transform="translate(105.95313,2.2031002)"><flowRegion
       id="flowRegion4408-2"><rect
         id="rect4410-9"
         width="147.41333"
         height="112.86333"
         x="-105.95333"
         y="186.00558" /></flowRegion><flowPara
       id="flowPara4457">0.8</flowPara><flowPara
       id="flowPara4414-1" /><flowPara
       id="flowPara4418-9" /><flowPara
       id="flowPara4422-4" /></flowRoot>  <flowRoot
     xml:space="preserve"
     id="flowRoot4406-1-7"
     style="font-style:normal;font-weight:normal;font-size:22.5px;line-height:125%;font-family:sans-serif;letter-spacing:0px;word-spacing:0px;fill:#000000;fill-opacity:1;stroke:none;stroke-width:1px;stroke-linecap:butt;stroke-linejoin:miter;stroke-opacity:1"
     transform="translate(105.95313,108.2031)"><flowRegion
       id="flowRegion4408-2-8"><rect
         id="rect4410-9-4"
         width="147.41333"
         height="112.86333"
         x="-105.95333"
         y="186.00558" /></flowRegion><flowPara
       id="flowPara4457-5">0.6</flowPara><flowPara
       id="flowPara4612" /><flowPara
       id="flowPara4414-1-0" /><flowPara
       id="flowPara4418-9-3" /><flowPara
       id="flowPara4422-4-6" /></flowRoot>  <flowRoot
     xml:space="preserve"
     id="flowRoot4406-1-7-5"
     style="font-style:normal;font-weight:normal;font-size:22.5px;line-height:125%;font-family:sans-serif;letter-spacing:0px;word-spacing:0px;fill:#000000;fill-opacity:1;stroke:none;stroke-width:1px;stroke-linecap:butt;stroke-linejoin:miter;stroke-opacity:1"
     transform="translate(105.95313,214.2031)"><flowRegion
       id="flowRegion4408-2-8-5"><rect
         id="rect4410-9-4-4"
         width="147.41333"
         height="112.86333"
         x="-105.95333"
         y="186.00558" /></flowRegion><flowPara
       id="flowPara4457-5-7">0.4</flowPara><flowPara
       id="flowPara4614" /><flowPara
       id="flowPara4414-1-0-6" /><flowPara
       id="flowPara4418-9-3-5" /><flowPara
       id="flowPara4422-4-6-6" /></flowRoot>  <flowRoot
     xml:space="preserve"
     id="flowRoot4406-1-7-4"
     style="font-style:normal;font-weight:normal;font-size:22.5px;line-height:125%;font-family:sans-serif;letter-spacing:0px;word-spacing:0px;fill:#000000;fill-opacity:1;stroke:none;stroke-width:1px;stroke-linecap:butt;stroke-linejoin:miter;stroke-opacity:1"
     transform="translate(105.95313,320.2031)"><flowRegion
       id="flowRegion4408-2-8-7"><rect
         id="rect4410-9-4-44"
         width="147.41333"
         height="112.86333"
         x="-105.95333"
         y="186.00558" /></flowRegion><flowPara
       id="flowPara4457-5-3">0.2</flowPara><flowPara
       id="flowPara4414-1-0-0" /><flowPara
       id="flowPara4418-9-3-7" /><flowPara
       id="flowPara4422-4-6-8" /></flowRoot>  <flowRoot
     xml:space="preserve"
     id="flowRoot4406-1-7-0"
     style="font-style:normal;font-weight:normal;font-size:22.5px;line-height:125%;font-family:sans-serif;letter-spacing:0px;word-spacing:0px;fill:#000000;fill-opacity:1;stroke:none;stroke-width:1px;stroke-linecap:butt;stroke-linejoin:miter;stroke-opacity:1"
     transform="translate(105.95313,426.2031)"><flowRegion
       id="flowRegion4408-2-8-6"><rect
         id="rect4410-9-4-8"
         width="147.41333"
         height="112.86333"
         x="-105.95333"
         y="186.00558" /></flowRegion><flowPara
       id="flowPara4457-5-9">   0</flowPara><flowPara
       id="flowPara4414-1-0-2" /><flowPara
       id="flowPara4418-9-3-6" /><flowPara
       id="flowPara4422-4-6-64" /></flowRoot>  <flowRoot
     xml:space="preserve"
     id="flowRoot4406-1-7-0-9"
     style="font-style:normal;font-weight:normal;font-size:22.5px;line-height:125%;font-family:sans-serif;letter-spacing:0px;word-spacing:0px;fill:#000000;fill-opacity:1;stroke:none;stroke-width:1px;stroke-linecap:butt;stroke-linejoin:miter;stroke-opacity:1"
     transform="translate(167.66166,474.01914)"><flowRegion
       id="flowRegion4408-2-8-6-5"><rect
         id="rect4410-9-4-8-0"
         width="147.41333"
         height="112.86333"
         x="-105.95333"
         y="186.00558" /></flowRegion><flowPara
       id="flowPara4457-5-9-4">   0</flowPara><flowPara
       id="flowPara4414-1-0-2-8" /><flowPara
       id="flowPara4418-9-3-6-7" /><flowPara
       id="flowPara4422-4-6-64-1" /></flowRoot>  <flowRoot
     xml:space="preserve"
     id="flowRoot4406-1-7-0-9-7"
     style="font-style:normal;font-weight:normal;font-size:22.5px;line-height:125%;font-family:sans-serif;letter-spacing:0px;word-spacing:0px;fill:#000000;fill-opacity:1;stroke:none;stroke-width:1px;stroke-linecap:butt;stroke-linejoin:miter;stroke-opacity:1"
     transform="translate(297.66165,474.01914)"><flowRegion
       id="flowRegion4408-2-8-6-5-2"><rect
         id="rect4410-9-4-8-0-7"
         width="147.41333"
         height="112.86333"
         x="-105.95333"
         y="186.00558" /></flowRegion><flowPara
       id="flowPara4457-5-9-4-2">   4</flowPara><flowPara
       id="flowPara4414-1-0-2-8-2" /><flowPara
       id="flowPara4418-9-3-6-7-6" /><flowPara
       id="flowPara4422-4-6-64-1-1" /></flowRoot>  <flowRoot
     xml:space="preserve"
     id="flowRoot4406-1-7-0-9-7-0"
     style="font-style:normal;font-weight:normal;font-size:22.5px;line-height:125%;font-family:sans-serif;letter-spacing:0px;word-spacing:0px;fill:#000000;fill-opacity:1;stroke:none;stroke-width:1px;stroke-linecap:butt;stroke-linejoin:miter;stroke-opacity:1"
     transform="translate(427.66165,474.01914)"><flowRegion
       id="flowRegion4408-2-8-6-5-2-6"><rect
         id="rect4410-9-4-8-0-7-1"
         width="147.41333"
         height="112.86333"
         x="-105.95333"
         y="186.00558" /></flowRegion><flowPara
       id="flowPara4715">   8</flowPara><flowPara
       id="flowPara4414-1-0-2-8-2-9" /><flowPara
       id="flowPara4418-9-3-6-7-6-4" /><flowPara
       id="flowPara4422-4-6-64-1-1-9" /></flowRoot>  <flowRoot
     xml:space="preserve"
     id="flowRoot4719"
     style="font-style:normal;font-weight:normal;font-size:22.5px;line-height:125%;font-family:sans-serif;letter-spacing:0px;word-spacing:0px;fill:#000000;fill-opacity:1;stroke:none;stroke-width:1px;stroke-linecap:butt;stroke-linejoin:miter;stroke-opacity:1"
     transform="translate(-31.198345,-9.1924918)"><flowRegion
       id="flowRegion4721"><rect
         id="rect4723"
         width="194.24777"
         height="92.133331"
         x="346.26776"
         y="706.5589" /></flowRegion><flowPara
       id="flowPara4725" /></flowRoot>  <flowRoot
     xml:space="preserve"
     id="flowRoot4406-1-7-0-9-7-5"
     style="font-style:normal;font-weight:normal;font-size:22.5px;line-height:125%;font-family:sans-serif;letter-spacing:0px;word-spacing:0px;fill:#000000;fill-opacity:1;stroke:none;stroke-width:1px;stroke-linecap:butt;stroke-linejoin:miter;stroke-opacity:1"
     transform="translate(557.66165,474.01914)"><flowRegion
       id="flowRegion4408-2-8-6-5-2-63"><rect
         id="rect4410-9-4-8-0-7-9"
         width="147.41333"
         height="112.86333"
         x="-105.95333"
         y="186.00558" /></flowRegion><flowPara
       id="flowPara4909">  12</flowPara><flowPara
       id="flowPara4414-1-0-2-8-2-8" /><flowPara
       id="flowPara4418-9-3-6-7-6-12" /><flowPara
       id="flowPara4422-4-6-64-1-1-93" /></flowRoot>  <flowRoot
     xml:space="preserve"
     id="flowRoot4406-1-7-0-9-7-0-90"
     style="font-style:normal;font-weight:normal;font-size:22.5px;line-height:125%;font-family:sans-serif;letter-spacing:0px;word-spacing:0px;fill:#000000;fill-opacity:1;stroke:none;stroke-width:1px;stroke-linecap:butt;stroke-linejoin:miter;stroke-opacity:1"
     transform="translate(687.66163,474.01914)"><flowRegion
       id="flowRegion4408-2-8-6-5-2-6-8"><rect
         id="rect4410-9-4-8-0-7-1-8"
         width="147.41333"
         height="112.86333"
         x="-105.95333"
         y="186.00558" /></flowRegion><flowPara
       id="flowPara4913">  16</flowPara><flowPara
       id="flowPara4414-1-0-2-8-2-9-0" /><flowPara
       id="flowPara4418-9-3-6-7-6-4-9" /><flowPara
       id="flowPara4422-4-6-64-1-1-9-63" /></flowRoot>  <flowRoot
     xml:space="preserve"
     id="flowRoot4406-1-7-0-9-7-4"
     style="font-style:normal;font-weight:normal;font-size:22.5px;line-height:125%;font-family:sans-serif;letter-spacing:0px;word-spacing:0px;fill:#000000;fill-opacity:1;stroke:none;stroke-width:1px;stroke-linecap:butt;stroke-linejoin:miter;stroke-opacity:1"
     transform="translate(817.66162,474.01914)"><flowRegion
       id="flowRegion4408-2-8-6-5-2-7"><rect
         id="rect4410-9-4-8-0-7-63"
         width="147.41333"
         height="112.86333"
         x="-105.95333"
         y="186.00558" /></flowRegion><flowPara
       id="flowPara4457-5-9-4-2-17">  20</flowPara><flowPara
       id="flowPara4414-1-0-2-8-2-5" /><flowPara
       id="flowPara4418-9-3-6-7-6-96" /><flowPara
       id="flowPara4422-4-6-64-1-1-2" /></flowRoot>  <flowRoot
     xml:space="preserve"
     id="flowRoot4406-1-7-0-9-7-59"
     style="font-style:normal;font-weight:normal;font-size:22.5px;line-height:125%;font-family:sans-serif;letter-spacing:0px;word-spacing:0px;fill:#000000;fill-opacity:1;stroke:none;stroke-width:1px;stroke-linecap:butt;stroke-linejoin:miter;stroke-opacity:1"
     transform="translate(947.66156,474.01914)"><flowRegion
       id="flowRegion4408-2-8-6-5-2-75"><rect
         id="rect4410-9-4-8-0-7-3"
         width="147.41333"
         height="112.86333"
         x="-105.95333"
         y="186.00558" /></flowRegion><flowPara
       id="flowPara4457-5-9-4-2-8">  24</flowPara><flowPara
       id="flowPara4414-1-0-2-8-2-83" /><flowPara
       id="flowPara4418-9-3-6-7-6-18" /><flowPara
       id="flowPara4422-4-6-64-1-1-96" /></flowRoot>  <flowRoot
     xml:space="preserve"
     id="flowRoot4406-1-7-0-9-7-0-43"
     style="font-style:normal;font-weight:normal;font-size:22.5px;line-height:125%;font-family:sans-serif;letter-spacing:0px;word-spacing:0px;fill:#000000;fill-opacity:1;stroke:none;stroke-width:1px;stroke-linecap:butt;stroke-linejoin:miter;stroke-opacity:1"
     transform="translate(1077.6616,474.01914)"><flowRegion
       id="flowRegion4408-2-8-6-5-2-6-3"><rect
         id="rect4410-9-4-8-0-7-1-3"
         width="147.41333"
         height="112.86333"
         x="-105.95333"
         y="186.00558" /></flowRegion><flowPara
       id="flowPara4715-8">  26</flowPara><flowPara
       id="flowPara4414-1-0-2-8-2-9-6" /><flowPara
       id="flowPara4418-9-3-6-7-6-4-0" /><flowPara
       id="flowPara4422-4-6-64-1-1-9-48" /></flowRoot>  <path
     style="fill:none;fill-rule:evenodd;stroke:#ff0000;stroke-width:3.99999976;stroke-linecap:butt;stroke-linejoin:miter;stroke-miterlimit:4;stroke-dasharray:none;stroke-opacity:1"
     d="m 60.823655,43.703815 50.000005,0"
     id="path4955-8"
     inkscape:connector-curvature="0" />
  <flowRoot
     xml:space="preserve"
     id="flowRoot4939-8"
     style="font-style:normal;font-variant:normal;font-weight:normal;font-stretch:normal;font-size:35px;line-height:125%;font-family:'Abyssinica SIL';-inkscape-font-specification:'Abyssinica SIL, Normal';text-align:start;letter-spacing:0px;word-spacing:0px;writing-mode:lr-tb;text-anchor:start;fill:#000000;fill-opacity:1;stroke:none;stroke-width:1px;stroke-linecap:butt;stroke-linejoin:miter;stroke-opacity:1"
     transform="translate(263.58096,676.50995)"><flowRegion
       id="flowRegion4941-9"><rect
         id="rect4943-7"
         width="433.23489"
         height="84.692535"
         x="239.96217"
         y="19.65484"
         style="font-style:normal;font-variant:normal;font-weight:normal;font-stretch:normal;font-size:35px;line-height:125%;font-family:'Abyssinica SIL';-inkscape-font-specification:'Abyssinica SIL, Normal';text-align:start;writing-mode:lr-tb;text-anchor:start" /></flowRegion><flowPara
       id="flowPara4949-6">Time [s]</flowPara></flowRoot>  <path
     style="fill:#00ff00;fill-opacity:0.48843928;fill-rule:evenodd;stroke:#00ab00;stroke-width:3.5;stroke-linecap:butt;stroke-linejoin:miter;stroke-miterlimit:4;stroke-dasharray:none;stroke-opacity:1"
     d="m 89.667625,626.70551 265.484355,0 0,-529.500002 64.87665,0 0,529.500002 395.77472,0 0,-529.500002 12.48672,0 0,529.500002 207.38813,0 0,-529.500002 26.9894,0 0,529.500002"
     id="path4145"
     inkscape:connector-curvature="0"
     sodipodi:nodetypes="ccccccccccccc" />
  <flowRoot
     xml:space="preserve"
     id="flowRoot4939-3"
     style="font-style:normal;font-variant:normal;font-weight:normal;font-stretch:normal;font-size:25px;line-height:125%;font-family:'Abyssinica SIL';-inkscape-font-specification:'Abyssinica SIL, Normal';text-align:start;letter-spacing:0px;word-spacing:0px;writing-mode:lr-tb;text-anchor:start;fill:#000000;fill-opacity:1;stroke:none;stroke-width:1px;stroke-linecap:butt;stroke-linejoin:miter;stroke-opacity:1"
     transform="translate(-117.2392,-22.339844)"><flowRegion
       id="flowRegion4941-6"><rect
         id="rect4943-75"
         width="433.23489"
         height="84.692535"
         x="239.96217"
         y="19.65484"
         style="font-style:normal;font-variant:normal;font-weight:normal;font-stretch:normal;font-size:25px;line-height:125%;font-family:'Abyssinica SIL';-inkscape-font-specification:'Abyssinica SIL, Normal';text-align:start;writing-mode:lr-tb;text-anchor:start" /></flowRegion><flowPara
       id="flowPara4945-3">NN Prediction </flowPara><flowPara
       id="flowPara4949-5">Smoothed Prediction</flowPara></flowRoot>  <path
     style="fill:none;fill-rule:evenodd;stroke:#0078ff;stroke-width:3.99999976;stroke-linecap:butt;stroke-linejoin:miter;stroke-miterlimit:4;stroke-dasharray:none;stroke-opacity:1"
     d="m 60.823655,11.703815 50.000005,0"
     id="path4955-6"
     inkscape:connector-curvature="0" />
  <path
     style="fill:none;fill-rule:evenodd;stroke:#00ab00;stroke-width:3.99999976;stroke-linecap:butt;stroke-linejoin:miter;stroke-miterlimit:4;stroke-dasharray:none;stroke-opacity:1"
     d="m 392.82366,43.703816 50,0"
     id="path4955-8-9-9"
     inkscape:connector-curvature="0" />
</svg>
